<svg width="1363" height="162" viewBox="0 0 1363 162" fill="none" xmlns="http://www.w3.org/2000/svg">
<path d="M0 15C0 6.71573 6.71573 0 15 0H37V162H15C6.71573 162 0 155.284 0 147V15Z" fill="#1789C9"/>
<rect width="1097" height="162" transform="translate(37)" fill="#F0F0F0"/>
<path d="M101.906 53.9219L94.3945 51.2383V48.0859L104.602 52.375V54.6367L101.906 53.9219ZM94.3945 56.1719L101.918 53.4297L104.602 52.7852V55.0352L94.3945 59.3242V56.1719ZM122.32 43.9375H125.824V55.2109C125.824 56.5234 125.543 57.6289 124.98 58.5273C124.426 59.4258 123.656 60.1016 122.672 60.5547C121.695 61.0078 120.57 61.2344 119.297 61.2344C118.023 61.2344 116.891 61.0078 115.898 60.5547C114.914 60.1016 114.141 59.4258 113.578 58.5273C113.023 57.6289 112.746 56.5234 112.746 55.2109V43.9375H116.262V55.2109C116.262 55.9766 116.383 56.6016 116.625 57.0859C116.867 57.5703 117.215 57.9258 117.668 58.1523C118.129 58.3789 118.672 58.4922 119.297 58.4922C119.938 58.4922 120.48 58.3789 120.926 58.1523C121.379 57.9258 121.723 57.5703 121.957 57.0859C122.199 56.6016 122.32 55.9766 122.32 55.2109V43.9375ZM142.605 43.9375V61H139.09L132.234 49.5625V61H128.719V43.9375H132.234L139.102 55.3867V43.9375H142.605ZM145.664 43.9375H152.027C153.332 43.9375 154.453 44.1328 155.391 44.5234C156.336 44.9141 157.062 45.4922 157.57 46.2578C158.078 47.0234 158.332 47.9648 158.332 49.082C158.332 49.9961 158.176 50.7812 157.863 51.4375C157.559 52.0859 157.125 52.6289 156.562 53.0664C156.008 53.4961 155.355 53.8398 154.605 54.0977L153.492 54.6836H147.961L147.938 51.9414H152.051C152.668 51.9414 153.18 51.832 153.586 51.6133C153.992 51.3945 154.297 51.0898 154.5 50.6992C154.711 50.3086 154.816 49.8555 154.816 49.3398C154.816 48.793 154.715 48.3203 154.512 47.9219C154.309 47.5234 154 47.2188 153.586 47.0078C153.172 46.7969 152.652 46.6914 152.027 46.6914H149.18V61H145.664V43.9375ZM155.203 61L151.312 53.3945L155.027 53.3711L158.965 60.8359V61H155.203ZM172.488 58.2578V61H163.406V58.2578H172.488ZM164.555 43.9375V61H161.039V43.9375H164.555ZM171.305 50.8867V53.5586H163.406V50.8867H171.305ZM172.477 43.9375V46.6914H163.406V43.9375H172.477ZM181.477 46.8555L176.836 61H173.098L179.438 43.9375H181.816L181.477 46.8555ZM185.332 61L180.68 46.8555L180.305 43.9375H182.707L189.082 61H185.332ZM185.121 54.6484V57.4023H176.109V54.6484H185.121ZM201.633 58.2578V61H193.043V58.2578H201.633ZM194.18 43.9375V61H190.664V43.9375H194.18ZM207.164 43.9375V61H203.648V43.9375H207.164ZM213.961 51.2266V53.9688H206.203V51.2266H213.961ZM214.781 43.9375V46.6914H206.203V43.9375H214.781ZM220.559 43.9375V61H217.055V43.9375H220.559ZM231.129 43.9375V61H227.625V43.9375H231.129ZM236.379 43.9375V46.6914H222.457V43.9375H236.379Z" fill="#888888"/>
<path d="M112.125 83.875V118H103.898V83.875H112.125ZM122.391 83.875V90.2266H93.8672V83.875H122.391ZM135.68 118.469C133.617 118.469 131.773 118.148 130.148 117.508C128.523 116.852 127.148 115.953 126.023 114.812C124.914 113.672 124.062 112.359 123.469 110.875C122.891 109.391 122.602 107.82 122.602 106.164V105.273C122.602 103.414 122.859 101.695 123.375 100.117C123.891 98.5234 124.656 97.1328 125.672 95.9453C126.688 94.7578 127.961 93.8359 129.492 93.1797C131.023 92.5078 132.805 92.1719 134.836 92.1719C136.633 92.1719 138.242 92.4609 139.664 93.0391C141.086 93.6172 142.289 94.4453 143.273 95.5234C144.273 96.6016 145.031 97.9062 145.547 99.4375C146.078 100.969 146.344 102.688 146.344 104.594V107.805H125.625V102.859H138.633V102.25C138.648 101.406 138.5 100.688 138.188 100.094C137.891 99.5 137.453 99.0469 136.875 98.7344C136.297 98.4219 135.594 98.2656 134.766 98.2656C133.906 98.2656 133.195 98.4531 132.633 98.8281C132.086 99.2031 131.656 99.7188 131.344 100.375C131.047 101.016 130.836 101.758 130.711 102.602C130.586 103.445 130.523 104.336 130.523 105.273V106.164C130.523 107.102 130.648 107.953 130.898 108.719C131.164 109.484 131.539 110.141 132.023 110.688C132.523 111.219 133.117 111.633 133.805 111.93C134.508 112.227 135.305 112.375 136.195 112.375C137.273 112.375 138.336 112.172 139.383 111.766C140.43 111.359 141.328 110.688 142.078 109.75L145.664 114.016C145.148 114.75 144.414 115.461 143.461 116.148C142.523 116.836 141.398 117.398 140.086 117.836C138.773 118.258 137.305 118.469 135.68 118.469ZM160.266 112.375C161 112.375 161.625 112.242 162.141 111.977C162.672 111.695 163.07 111.305 163.336 110.805C163.617 110.289 163.75 109.672 163.734 108.953H171.164C171.18 110.859 170.711 112.531 169.758 113.969C168.82 115.391 167.539 116.5 165.914 117.297C164.305 118.078 162.484 118.469 160.453 118.469C158.469 118.469 156.734 118.148 155.25 117.508C153.766 116.852 152.523 115.945 151.523 114.789C150.539 113.617 149.797 112.25 149.297 110.688C148.812 109.125 148.57 107.43 148.57 105.602V105.062C148.57 103.234 148.812 101.539 149.297 99.9766C149.797 98.3984 150.539 97.0312 151.523 95.875C152.523 94.7031 153.758 93.7969 155.227 93.1562C156.711 92.5 158.438 92.1719 160.406 92.1719C162.516 92.1719 164.375 92.5703 165.984 93.3672C167.609 94.1641 168.883 95.3203 169.805 96.8359C170.727 98.3516 171.18 100.188 171.164 102.344H163.734C163.75 101.578 163.633 100.891 163.383 100.281C163.133 99.6719 162.742 99.1875 162.211 98.8281C161.695 98.4531 161.031 98.2656 160.219 98.2656C159.406 98.2656 158.75 98.4453 158.25 98.8047C157.75 99.1641 157.367 99.6641 157.102 100.305C156.852 100.93 156.68 101.648 156.586 102.461C156.508 103.273 156.469 104.141 156.469 105.062V105.602C156.469 106.539 156.508 107.422 156.586 108.25C156.68 109.062 156.859 109.781 157.125 110.406C157.391 111.016 157.773 111.5 158.273 111.859C158.773 112.203 159.438 112.375 160.266 112.375ZM182.273 82V118H174.375V82H182.273ZM181.336 104.453L179.484 104.5C179.484 102.719 179.703 101.078 180.141 99.5781C180.578 98.0781 181.203 96.7734 182.016 95.6641C182.828 94.5547 183.805 93.6953 184.945 93.0859C186.086 92.4766 187.352 92.1719 188.742 92.1719C189.992 92.1719 191.133 92.3516 192.164 92.7109C193.211 93.0703 194.109 93.6484 194.859 94.4453C195.625 95.2422 196.211 96.2812 196.617 97.5625C197.039 98.8438 197.25 100.406 197.25 102.25V118H189.305V102.203C189.305 101.172 189.156 100.375 188.859 99.8125C188.578 99.2344 188.172 98.8359 187.641 98.6172C187.109 98.3828 186.461 98.2656 185.695 98.2656C184.773 98.2656 184.023 98.4219 183.445 98.7344C182.867 99.0469 182.422 99.4844 182.109 100.047C181.812 100.594 181.609 101.242 181.5 101.992C181.391 102.742 181.336 103.562 181.336 104.453ZM231.539 108.93C231.539 108.398 231.461 107.922 231.305 107.5C231.148 107.062 230.859 106.656 230.438 106.281C230.016 105.906 229.406 105.531 228.609 105.156C227.828 104.766 226.797 104.359 225.516 103.938C224.016 103.438 222.57 102.875 221.18 102.25C219.789 101.609 218.547 100.867 217.453 100.023C216.359 99.1641 215.492 98.1641 214.852 97.0234C214.211 95.8672 213.891 94.5234 213.891 92.9922C213.891 91.5234 214.219 90.2031 214.875 89.0312C215.531 87.8438 216.445 86.8359 217.617 86.0078C218.805 85.1641 220.195 84.5234 221.789 84.0859C223.383 83.6328 225.125 83.4062 227.016 83.4062C229.516 83.4062 231.719 83.8438 233.625 84.7188C235.547 85.5781 237.047 86.8047 238.125 88.3984C239.219 89.9766 239.766 91.8438 239.766 94H231.586C231.586 93.1406 231.406 92.3828 231.047 91.7266C230.703 91.0703 230.18 90.5547 229.477 90.1797C228.773 89.8047 227.891 89.6172 226.828 89.6172C225.797 89.6172 224.93 89.7734 224.227 90.0859C223.523 90.3984 222.992 90.8203 222.633 91.3516C222.273 91.8672 222.094 92.4375 222.094 93.0625C222.094 93.5781 222.234 94.0469 222.516 94.4688C222.812 94.875 223.227 95.2578 223.758 95.6172C224.305 95.9766 224.961 96.3203 225.727 96.6484C226.508 96.9766 227.383 97.2969 228.352 97.6094C230.164 98.1875 231.773 98.8359 233.18 99.5547C234.602 100.258 235.797 101.062 236.766 101.969C237.75 102.859 238.492 103.875 238.992 105.016C239.508 106.156 239.766 107.445 239.766 108.883C239.766 110.414 239.469 111.773 238.875 112.961C238.281 114.148 237.43 115.156 236.32 115.984C235.211 116.797 233.883 117.414 232.336 117.836C230.789 118.258 229.062 118.469 227.156 118.469C225.406 118.469 223.68 118.25 221.977 117.812C220.289 117.359 218.758 116.672 217.383 115.75C216.008 114.812 214.906 113.617 214.078 112.164C213.266 110.695 212.859 108.953 212.859 106.938H221.109C221.109 107.938 221.242 108.781 221.508 109.469C221.773 110.156 222.164 110.711 222.68 111.133C223.195 111.539 223.828 111.836 224.578 112.023C225.328 112.195 226.188 112.281 227.156 112.281C228.203 112.281 229.047 112.133 229.688 111.836C230.328 111.523 230.797 111.117 231.094 110.617C231.391 110.102 231.539 109.539 231.539 108.93ZM256.992 92.6406V98.125H241.711V92.6406H256.992ZM244.922 86.3359H252.82V109.727C252.82 110.398 252.898 110.922 253.055 111.297C253.211 111.656 253.477 111.914 253.852 112.07C254.242 112.211 254.758 112.281 255.398 112.281C255.852 112.281 256.227 112.273 256.523 112.258C256.82 112.227 257.102 112.188 257.367 112.141V117.789C256.695 118.008 255.992 118.172 255.258 118.281C254.523 118.406 253.742 118.469 252.914 118.469C251.227 118.469 249.781 118.203 248.578 117.672C247.391 117.141 246.484 116.305 245.859 115.164C245.234 114.023 244.922 112.539 244.922 110.711V86.3359ZM273.305 111.625V101.172C273.305 100.453 273.203 99.8359 273 99.3203C272.797 98.8047 272.477 98.4062 272.039 98.125C271.602 97.8281 271.016 97.6797 270.281 97.6797C269.688 97.6797 269.18 97.7812 268.758 97.9844C268.336 98.1875 268.016 98.4922 267.797 98.8984C267.578 99.3047 267.469 99.8203 267.469 100.445H259.57C259.57 99.2734 259.828 98.1875 260.344 97.1875C260.875 96.1719 261.625 95.2891 262.594 94.5391C263.578 93.7891 264.75 93.2109 266.109 92.8047C267.484 92.3828 269.016 92.1719 270.703 92.1719C272.719 92.1719 274.516 92.5078 276.094 93.1797C277.688 93.8516 278.945 94.8594 279.867 96.2031C280.789 97.5312 281.25 99.2031 281.25 101.219V111.602C281.25 113.258 281.344 114.516 281.531 115.375C281.719 116.219 281.984 116.961 282.328 117.602V118H274.406C274.031 117.219 273.75 116.266 273.562 115.141C273.391 114 273.305 112.828 273.305 111.625ZM274.266 102.508L274.312 106.727H270.82C270.086 106.727 269.461 106.828 268.945 107.031C268.445 107.234 268.039 107.516 267.727 107.875C267.43 108.219 267.211 108.609 267.07 109.047C266.945 109.484 266.883 109.945 266.883 110.43C266.883 110.898 266.992 111.32 267.211 111.695C267.445 112.055 267.758 112.336 268.148 112.539C268.539 112.742 268.977 112.844 269.461 112.844C270.336 112.844 271.078 112.68 271.688 112.352C272.312 112.008 272.789 111.594 273.117 111.109C273.445 110.625 273.609 110.172 273.609 109.75L275.344 112.984C275.031 113.609 274.672 114.242 274.266 114.883C273.875 115.523 273.383 116.117 272.789 116.664C272.211 117.195 271.5 117.633 270.656 117.977C269.812 118.305 268.789 118.469 267.586 118.469C266.023 118.469 264.586 118.148 263.273 117.508C261.977 116.867 260.938 115.977 260.156 114.836C259.375 113.68 258.984 112.352 258.984 110.852C258.984 109.539 259.219 108.367 259.688 107.336C260.172 106.305 260.898 105.43 261.867 104.711C262.836 103.992 264.07 103.445 265.57 103.07C267.07 102.695 268.836 102.508 270.867 102.508H274.266ZM296.344 112.375C297.078 112.375 297.703 112.242 298.219 111.977C298.75 111.695 299.148 111.305 299.414 110.805C299.695 110.289 299.828 109.672 299.812 108.953H307.242C307.258 110.859 306.789 112.531 305.836 113.969C304.898 115.391 303.617 116.5 301.992 117.297C300.383 118.078 298.562 118.469 296.531 118.469C294.547 118.469 292.812 118.148 291.328 117.508C289.844 116.852 288.602 115.945 287.602 114.789C286.617 113.617 285.875 112.25 285.375 110.688C284.891 109.125 284.648 107.43 284.648 105.602V105.062C284.648 103.234 284.891 101.539 285.375 99.9766C285.875 98.3984 286.617 97.0312 287.602 95.875C288.602 94.7031 289.836 93.7969 291.305 93.1562C292.789 92.5 294.516 92.1719 296.484 92.1719C298.594 92.1719 300.453 92.5703 302.062 93.3672C303.688 94.1641 304.961 95.3203 305.883 96.8359C306.805 98.3516 307.258 100.188 307.242 102.344H299.812C299.828 101.578 299.711 100.891 299.461 100.281C299.211 99.6719 298.82 99.1875 298.289 98.8281C297.773 98.4531 297.109 98.2656 296.297 98.2656C295.484 98.2656 294.828 98.4453 294.328 98.8047C293.828 99.1641 293.445 99.6641 293.18 100.305C292.93 100.93 292.758 101.648 292.664 102.461C292.586 103.273 292.547 104.141 292.547 105.062V105.602C292.547 106.539 292.586 107.422 292.664 108.25C292.758 109.062 292.938 109.781 293.203 110.406C293.469 111.016 293.852 111.5 294.352 111.859C294.852 112.203 295.516 112.375 296.344 112.375ZM318.586 81.9766V118H310.688V81.9766H318.586ZM334.805 92.6406L323.789 105.555L318.023 111.32L314.578 106.305L319.383 100.047L325.336 92.6406H334.805ZM326.344 118L319.57 106.445L325.406 102.297L335.391 118H326.344Z" fill="black"/>
<path d="M1134 0H1348C1356.28 0 1363 6.71573 1363 15V147C1363 155.284 1356.28 162 1348 162H1134V0Z" fill="#1789C9"/>
<path fill-rule="evenodd" clip-rule="evenodd" d="M1218.75 52.5C1218.62 52.5 1218.49 52.5527 1218.4 52.6464C1218.3 52.7402 1218.25 52.8674 1218.25 53V109C1218.25 109.133 1218.3 109.26 1218.4 109.354C1218.49 109.447 1218.62 109.5 1218.75 109.5H1278.25C1278.38 109.5 1278.51 109.447 1278.6 109.354C1278.7 109.26 1278.75 109.133 1278.75 109V63.5C1278.75 63.3674 1278.7 63.2402 1278.6 63.1464C1278.51 63.0527 1278.38 63 1278.25 63H1248.5C1247.61 63 1246.77 62.6045 1246.2 61.9206L1238.34 52.5H1218.75ZM1214.15 48.4038C1215.37 47.1848 1217.03 46.5 1218.75 46.5H1239.75C1240.64 46.5 1241.48 46.8955 1242.05 47.5794L1249.91 57H1278.25C1279.97 57 1281.63 57.6848 1282.85 58.9038C1284.07 60.1228 1284.75 61.7761 1284.75 63.5V109C1284.75 110.724 1284.07 112.377 1282.85 113.596C1281.63 114.815 1279.97 115.5 1278.25 115.5H1218.75C1217.03 115.5 1215.37 114.815 1214.15 113.596C1212.93 112.377 1212.25 110.724 1212.25 109V53C1212.25 51.2761 1212.93 49.6228 1214.15 48.4038Z" fill="white"/>
<path fill-rule="evenodd" clip-rule="evenodd" d="M1243.97 75.0251C1245.34 76.392 1245.34 78.608 1243.97 79.9749L1237.7 86.25L1243.97 92.5251C1245.34 93.892 1245.34 96.108 1243.97 97.4749C1242.61 98.8417 1240.39 98.8417 1239.03 97.4749L1230.28 88.7249C1228.91 87.358 1228.91 85.142 1230.28 83.7751L1239.03 75.0251C1240.39 73.6583 1242.61 73.6583 1243.97 75.0251Z" fill="white"/>
<path fill-rule="evenodd" clip-rule="evenodd" d="M1252.28 97.4749C1250.91 96.108 1250.91 93.892 1252.28 92.5251L1258.55 86.25L1252.28 79.9749C1250.91 78.608 1250.91 76.392 1252.28 75.0251C1253.64 73.6583 1255.86 73.6583 1257.22 75.0251L1265.97 83.7751C1267.34 85.142 1267.34 87.358 1265.97 88.7249L1257.22 97.4749C1255.86 98.8417 1253.64 98.8417 1252.28 97.4749Z" fill="white"/>
</svg>
