<svg width="1026" height="297" viewBox="0 0 1026 297" fill="none" xmlns="http://www.w3.org/2000/svg">
<path d="M0 15C0 6.71573 6.71573 0 15 0H37V297H15C6.71573 297 0 290.284 0 282V15Z" fill="#1789C9"/>
<path d="M37 0H1026V297H37V0Z" fill="#F0F0F0"/>
<path d="M105.691 53.7832L98.7305 75H93.123L102.633 49.4062H106.201L105.691 53.7832ZM111.475 75L104.496 53.7832L103.934 49.4062H107.537L117.1 75H111.475ZM111.158 65.4727V69.6035H97.6406V65.4727H111.158ZM124.096 48V75H119.033V48H124.096ZM123.375 64.8223H121.986C121.998 63.498 122.174 62.2793 122.514 61.166C122.854 60.041 123.34 59.0684 123.973 58.248C124.605 57.416 125.361 56.7715 126.24 56.3145C127.131 55.8574 128.115 55.6289 129.193 55.6289C130.131 55.6289 130.98 55.7637 131.742 56.0332C132.516 56.291 133.178 56.7129 133.729 57.2988C134.291 57.873 134.725 58.6289 135.029 59.5664C135.334 60.5039 135.486 61.6406 135.486 62.9766V75H130.389V62.9414C130.389 62.0977 130.266 61.4355 130.02 60.9551C129.785 60.4629 129.439 60.1172 128.982 59.918C128.537 59.707 127.986 59.6016 127.33 59.6016C126.604 59.6016 125.982 59.7363 125.467 60.0059C124.963 60.2754 124.559 60.6504 124.254 61.1309C123.949 61.5996 123.727 62.1504 123.586 62.7832C123.445 63.416 123.375 64.0957 123.375 64.8223ZM144.398 59.918V75H139.318V55.9805H144.082L144.398 59.918ZM143.695 64.8223H142.289C142.289 63.498 142.447 62.2793 142.764 61.166C143.092 60.041 143.566 59.0684 144.188 58.248C144.82 57.416 145.6 56.7715 146.525 56.3145C147.451 55.8574 148.523 55.6289 149.742 55.6289C150.586 55.6289 151.359 55.7578 152.062 56.0156C152.766 56.2617 153.369 56.6543 153.873 57.1934C154.389 57.7207 154.787 58.4121 155.068 59.2676C155.35 60.1113 155.49 61.125 155.49 62.3086V75H150.428V62.8711C150.428 62.0039 150.311 61.3359 150.076 60.8672C149.842 60.3984 149.508 60.0703 149.074 59.8828C148.652 59.6953 148.143 59.6016 147.545 59.6016C146.889 59.6016 146.314 59.7363 145.822 60.0059C145.342 60.2754 144.943 60.6504 144.627 61.1309C144.311 61.5996 144.076 62.1504 143.924 62.7832C143.771 63.416 143.695 64.0957 143.695 64.8223ZM155.016 64.2422L153.205 64.4707C153.205 63.2285 153.357 62.0742 153.662 61.0078C153.979 59.9414 154.441 59.0039 155.051 58.1953C155.672 57.3867 156.439 56.7598 157.354 56.3145C158.268 55.8574 159.322 55.6289 160.518 55.6289C161.432 55.6289 162.264 55.7637 163.014 56.0332C163.764 56.291 164.402 56.707 164.93 57.2812C165.469 57.8438 165.879 58.582 166.16 59.4961C166.453 60.4102 166.6 61.5293 166.6 62.8535V75H161.52V62.8535C161.52 61.9746 161.402 61.3066 161.168 60.8496C160.945 60.3809 160.617 60.0586 160.184 59.8828C159.762 59.6953 159.258 59.6016 158.672 59.6016C158.062 59.6016 157.529 59.7246 157.072 59.9707C156.615 60.2051 156.234 60.5332 155.93 60.9551C155.625 61.377 155.396 61.8691 155.244 62.4316C155.092 62.9824 155.016 63.5859 155.016 64.2422ZM180.785 70.7109V62.2383C180.785 61.6289 180.686 61.1074 180.486 60.6738C180.287 60.2285 179.977 59.8828 179.555 59.6367C179.145 59.3906 178.611 59.2676 177.955 59.2676C177.393 59.2676 176.906 59.3672 176.496 59.5664C176.086 59.7539 175.77 60.0293 175.547 60.3926C175.324 60.7441 175.213 61.1602 175.213 61.6406H170.15C170.15 60.832 170.338 60.0645 170.713 59.3379C171.088 58.6113 171.633 57.9727 172.348 57.4219C173.062 56.8594 173.912 56.4199 174.896 56.1035C175.893 55.7871 177.006 55.6289 178.236 55.6289C179.713 55.6289 181.025 55.875 182.174 56.3672C183.322 56.8594 184.225 57.5977 184.881 58.582C185.549 59.5664 185.883 60.7969 185.883 62.2734V70.4121C185.883 71.4551 185.947 72.3105 186.076 72.9785C186.205 73.6348 186.393 74.209 186.639 74.7012V75H181.523C181.277 74.4844 181.09 73.8398 180.961 73.0664C180.844 72.2812 180.785 71.4961 180.785 70.7109ZM181.453 63.416L181.488 66.2812H178.658C177.99 66.2812 177.41 66.3574 176.918 66.5098C176.426 66.6621 176.021 66.8789 175.705 67.1602C175.389 67.4297 175.154 67.7461 175.002 68.1094C174.861 68.4727 174.791 68.8711 174.791 69.3047C174.791 69.7383 174.891 70.1309 175.09 70.4824C175.289 70.8223 175.576 71.0918 175.951 71.291C176.326 71.4785 176.766 71.5723 177.27 71.5723C178.031 71.5723 178.693 71.4199 179.256 71.1152C179.818 70.8105 180.252 70.4355 180.557 69.9902C180.873 69.5449 181.037 69.123 181.049 68.7246L182.385 70.8691C182.197 71.3496 181.939 71.8477 181.611 72.3633C181.295 72.8789 180.891 73.3652 180.398 73.8223C179.906 74.2676 179.314 74.6367 178.623 74.9297C177.932 75.2109 177.111 75.3516 176.162 75.3516C174.955 75.3516 173.859 75.1113 172.875 74.6309C171.902 74.1387 171.129 73.4648 170.555 72.6094C169.992 71.7422 169.711 70.7578 169.711 69.6562C169.711 68.6602 169.898 67.7754 170.273 67.002C170.648 66.2285 171.199 65.5781 171.926 65.0508C172.664 64.5117 173.584 64.1074 174.686 63.8379C175.787 63.5566 177.064 63.416 178.518 63.416H181.453ZM201.018 70.8516V48H206.115V75H201.527L201.018 70.8516ZM188.994 65.7188V65.3496C188.994 63.8965 189.158 62.5781 189.486 61.3945C189.814 60.1992 190.295 59.1738 190.928 58.3184C191.561 57.4629 192.34 56.8008 193.266 56.332C194.191 55.8633 195.246 55.6289 196.43 55.6289C197.543 55.6289 198.516 55.8633 199.348 56.332C200.191 56.8008 200.906 57.4688 201.492 58.3359C202.09 59.1914 202.57 60.2051 202.934 61.377C203.297 62.5371 203.561 63.8086 203.725 65.1914V66C203.561 67.3242 203.297 68.5547 202.934 69.6914C202.57 70.8281 202.09 71.8242 201.492 72.6797C200.906 73.5234 200.191 74.1797 199.348 74.6484C198.504 75.1172 197.52 75.3516 196.395 75.3516C195.211 75.3516 194.156 75.1113 193.23 74.6309C192.316 74.1504 191.543 73.4766 190.91 72.6094C190.289 71.7422 189.814 70.7227 189.486 69.5508C189.158 68.3789 188.994 67.1016 188.994 65.7188ZM194.057 65.3496V65.7188C194.057 66.5039 194.115 67.2363 194.232 67.916C194.361 68.5957 194.566 69.1992 194.848 69.7266C195.141 70.2422 195.516 70.6465 195.973 70.9395C196.441 71.2207 197.01 71.3613 197.678 71.3613C198.545 71.3613 199.26 71.168 199.822 70.7812C200.385 70.3828 200.812 69.8379 201.105 69.1465C201.41 68.4551 201.586 67.6582 201.633 66.7559V64.4531C201.598 63.7148 201.492 63.0527 201.316 62.4668C201.152 61.8691 200.906 61.3594 200.578 60.9375C200.262 60.5156 199.863 60.1875 199.383 59.9531C198.914 59.7188 198.357 59.6016 197.713 59.6016C197.057 59.6016 196.494 59.7539 196.025 60.0586C195.557 60.3516 195.176 60.7559 194.883 61.2715C194.602 61.7871 194.391 62.3965 194.25 63.0996C194.121 63.791 194.057 64.541 194.057 65.3496ZM232.676 68.3027C232.676 67.8457 232.605 67.4355 232.465 67.0723C232.336 66.6973 232.09 66.3574 231.727 66.0527C231.363 65.7363 230.854 65.4258 230.197 65.1211C229.541 64.8164 228.691 64.5 227.648 64.1719C226.488 63.7969 225.387 63.375 224.344 62.9062C223.312 62.4375 222.398 61.8926 221.602 61.2715C220.816 60.6387 220.195 59.9062 219.738 59.0742C219.293 58.2422 219.07 57.2754 219.07 56.1738C219.07 55.1074 219.305 54.1406 219.773 53.2734C220.242 52.3945 220.898 51.6445 221.742 51.0234C222.586 50.3906 223.582 49.9043 224.73 49.5645C225.891 49.2246 227.162 49.0547 228.545 49.0547C230.432 49.0547 232.078 49.3945 233.484 50.0742C234.891 50.7539 235.98 51.6855 236.754 52.8691C237.539 54.0527 237.932 55.4062 237.932 56.9297H232.693C232.693 56.1797 232.535 55.5234 232.219 54.9609C231.914 54.3867 231.445 53.9355 230.812 53.6074C230.191 53.2793 229.406 53.1152 228.457 53.1152C227.543 53.1152 226.781 53.2559 226.172 53.5371C225.562 53.8066 225.105 54.1758 224.801 54.6445C224.496 55.1016 224.344 55.6172 224.344 56.1914C224.344 56.625 224.449 57.0176 224.66 57.3691C224.883 57.7207 225.211 58.0488 225.645 58.3535C226.078 58.6582 226.611 58.9453 227.244 59.2148C227.877 59.4844 228.609 59.748 229.441 60.0059C230.836 60.4277 232.061 60.9023 233.115 61.4297C234.182 61.957 235.072 62.5488 235.787 63.2051C236.502 63.8613 237.041 64.6055 237.404 65.4375C237.768 66.2695 237.949 67.2129 237.949 68.2676C237.949 69.3809 237.732 70.377 237.299 71.2559C236.865 72.1348 236.238 72.8789 235.418 73.4883C234.598 74.0977 233.619 74.5605 232.482 74.877C231.346 75.1934 230.074 75.3516 228.668 75.3516C227.402 75.3516 226.154 75.1875 224.924 74.8594C223.693 74.5195 222.574 74.0098 221.566 73.3301C220.57 72.6504 219.773 71.7832 219.176 70.7285C218.578 69.6738 218.279 68.4258 218.279 66.9844H223.57C223.57 67.7812 223.693 68.4551 223.939 69.0059C224.186 69.5566 224.531 70.002 224.977 70.3418C225.434 70.6816 225.973 70.9277 226.594 71.0801C227.227 71.2324 227.918 71.3086 228.668 71.3086C229.582 71.3086 230.332 71.1797 230.918 70.9219C231.516 70.6641 231.955 70.3066 232.236 69.8496C232.529 69.3926 232.676 68.877 232.676 68.3027ZM246.158 48V75H241.096V48H246.158ZM245.438 64.8223H244.049C244.061 63.498 244.236 62.2793 244.576 61.166C244.916 60.041 245.402 59.0684 246.035 58.248C246.668 57.416 247.424 56.7715 248.303 56.3145C249.193 55.8574 250.178 55.6289 251.256 55.6289C252.193 55.6289 253.043 55.7637 253.805 56.0332C254.578 56.291 255.24 56.7129 255.791 57.2988C256.354 57.873 256.787 58.6289 257.092 59.5664C257.396 60.5039 257.549 61.6406 257.549 62.9766V75H252.451V62.9414C252.451 62.0977 252.328 61.4355 252.082 60.9551C251.848 60.4629 251.502 60.1172 251.045 59.918C250.6 59.707 250.049 59.6016 249.393 59.6016C248.666 59.6016 248.045 59.7363 247.529 60.0059C247.025 60.2754 246.621 60.6504 246.316 61.1309C246.012 61.5996 245.789 62.1504 245.648 62.7832C245.508 63.416 245.438 64.0957 245.438 64.8223ZM271.664 70.7109V62.2383C271.664 61.6289 271.564 61.1074 271.365 60.6738C271.166 60.2285 270.855 59.8828 270.434 59.6367C270.023 59.3906 269.49 59.2676 268.834 59.2676C268.271 59.2676 267.785 59.3672 267.375 59.5664C266.965 59.7539 266.648 60.0293 266.426 60.3926C266.203 60.7441 266.092 61.1602 266.092 61.6406H261.029C261.029 60.832 261.217 60.0645 261.592 59.3379C261.967 58.6113 262.512 57.9727 263.227 57.4219C263.941 56.8594 264.791 56.4199 265.775 56.1035C266.771 55.7871 267.885 55.6289 269.115 55.6289C270.592 55.6289 271.904 55.875 273.053 56.3672C274.201 56.8594 275.104 57.5977 275.76 58.582C276.428 59.5664 276.762 60.7969 276.762 62.2734V70.4121C276.762 71.4551 276.826 72.3105 276.955 72.9785C277.084 73.6348 277.271 74.209 277.518 74.7012V75H272.402C272.156 74.4844 271.969 73.8398 271.84 73.0664C271.723 72.2812 271.664 71.4961 271.664 70.7109ZM272.332 63.416L272.367 66.2812H269.537C268.869 66.2812 268.289 66.3574 267.797 66.5098C267.305 66.6621 266.9 66.8789 266.584 67.1602C266.268 67.4297 266.033 67.7461 265.881 68.1094C265.74 68.4727 265.67 68.8711 265.67 69.3047C265.67 69.7383 265.77 70.1309 265.969 70.4824C266.168 70.8223 266.455 71.0918 266.83 71.291C267.205 71.4785 267.645 71.5723 268.148 71.5723C268.91 71.5723 269.572 71.4199 270.135 71.1152C270.697 70.8105 271.131 70.4355 271.436 69.9902C271.752 69.5449 271.916 69.123 271.928 68.7246L273.264 70.8691C273.076 71.3496 272.818 71.8477 272.49 72.3633C272.174 72.8789 271.77 73.3652 271.277 73.8223C270.785 74.2676 270.193 74.6367 269.502 74.9297C268.811 75.2109 267.99 75.3516 267.041 75.3516C265.834 75.3516 264.738 75.1113 263.754 74.6309C262.781 74.1387 262.008 73.4648 261.434 72.6094C260.871 71.7422 260.59 70.7578 260.59 69.6562C260.59 68.6602 260.777 67.7754 261.152 67.002C261.527 66.2285 262.078 65.5781 262.805 65.0508C263.543 64.5117 264.463 64.1074 265.564 63.8379C266.666 63.5566 267.943 63.416 269.396 63.416H272.332ZM285.727 59.918V75H280.646V55.9805H285.41L285.727 59.918ZM285.023 64.8223H283.617C283.617 63.498 283.775 62.2793 284.092 61.166C284.42 60.041 284.895 59.0684 285.516 58.248C286.148 57.416 286.928 56.7715 287.854 56.3145C288.779 55.8574 289.852 55.6289 291.07 55.6289C291.914 55.6289 292.688 55.7578 293.391 56.0156C294.094 56.2617 294.697 56.6543 295.201 57.1934C295.717 57.7207 296.115 58.4121 296.396 59.2676C296.678 60.1113 296.818 61.125 296.818 62.3086V75H291.756V62.8711C291.756 62.0039 291.639 61.3359 291.404 60.8672C291.17 60.3984 290.836 60.0703 290.402 59.8828C289.98 59.6953 289.471 59.6016 288.873 59.6016C288.217 59.6016 287.643 59.7363 287.15 60.0059C286.67 60.2754 286.271 60.6504 285.955 61.1309C285.639 61.5996 285.404 62.1504 285.252 62.7832C285.1 63.416 285.023 64.0957 285.023 64.8223ZM296.344 64.2422L294.533 64.4707C294.533 63.2285 294.686 62.0742 294.99 61.0078C295.307 59.9414 295.77 59.0039 296.379 58.1953C297 57.3867 297.768 56.7598 298.682 56.3145C299.596 55.8574 300.65 55.6289 301.846 55.6289C302.76 55.6289 303.592 55.7637 304.342 56.0332C305.092 56.291 305.73 56.707 306.258 57.2812C306.797 57.8438 307.207 58.582 307.488 59.4961C307.781 60.4102 307.928 61.5293 307.928 62.8535V75H302.848V62.8535C302.848 61.9746 302.73 61.3066 302.496 60.8496C302.273 60.3809 301.945 60.0586 301.512 59.8828C301.09 59.6953 300.586 59.6016 300 59.6016C299.391 59.6016 298.857 59.7246 298.4 59.9707C297.943 60.2051 297.562 60.5332 297.258 60.9551C296.953 61.377 296.725 61.8691 296.572 62.4316C296.42 62.9824 296.344 63.5859 296.344 64.2422ZM311.039 65.6836V65.3145C311.039 63.9199 311.238 62.6367 311.637 61.4648C312.035 60.2812 312.615 59.2559 313.377 58.3887C314.139 57.5215 315.076 56.8477 316.189 56.3672C317.303 55.875 318.58 55.6289 320.021 55.6289C321.463 55.6289 322.746 55.875 323.871 56.3672C324.996 56.8477 325.939 57.5215 326.701 58.3887C327.475 59.2559 328.061 60.2812 328.459 61.4648C328.857 62.6367 329.057 63.9199 329.057 65.3145V65.6836C329.057 67.0664 328.857 68.3496 328.459 69.5332C328.061 70.7051 327.475 71.7305 326.701 72.6094C325.939 73.4766 325.002 74.1504 323.889 74.6309C322.775 75.1113 321.498 75.3516 320.057 75.3516C318.615 75.3516 317.332 75.1113 316.207 74.6309C315.094 74.1504 314.15 73.4766 313.377 72.6094C312.615 71.7305 312.035 70.7051 311.637 69.5332C311.238 68.3496 311.039 67.0664 311.039 65.6836ZM316.102 65.3145V65.6836C316.102 66.4805 316.172 67.2246 316.312 67.916C316.453 68.6074 316.676 69.2168 316.98 69.7441C317.297 70.2598 317.707 70.6641 318.211 70.957C318.715 71.25 319.33 71.3965 320.057 71.3965C320.76 71.3965 321.363 71.25 321.867 70.957C322.371 70.6641 322.775 70.2598 323.08 69.7441C323.385 69.2168 323.607 68.6074 323.748 67.916C323.9 67.2246 323.977 66.4805 323.977 65.6836V65.3145C323.977 64.541 323.9 63.8145 323.748 63.1348C323.607 62.4434 323.379 61.834 323.062 61.3066C322.758 60.7676 322.354 60.3457 321.85 60.041C321.346 59.7363 320.736 59.584 320.021 59.584C319.307 59.584 318.697 59.7363 318.193 60.041C317.701 60.3457 317.297 60.7676 316.98 61.3066C316.676 61.834 316.453 62.4434 316.312 63.1348C316.172 63.8145 316.102 64.541 316.102 65.3145ZM343.418 70.4473V55.9805H348.48V75H343.717L343.418 70.4473ZM343.98 66.5449L345.475 66.5098C345.475 67.7754 345.328 68.9531 345.035 70.043C344.742 71.1211 344.303 72.0586 343.717 72.8555C343.131 73.6406 342.393 74.2559 341.502 74.7012C340.611 75.1348 339.562 75.3516 338.355 75.3516C337.43 75.3516 336.574 75.2227 335.789 74.9648C335.016 74.6953 334.348 74.2793 333.785 73.7168C333.234 73.1426 332.801 72.4102 332.484 71.5195C332.18 70.6172 332.027 69.5332 332.027 68.2676V55.9805H337.09V68.3027C337.09 68.8652 337.154 69.3398 337.283 69.7266C337.424 70.1133 337.617 70.4297 337.863 70.6758C338.109 70.9219 338.396 71.0977 338.725 71.2031C339.064 71.3086 339.439 71.3613 339.85 71.3613C340.893 71.3613 341.713 71.1504 342.311 70.7285C342.92 70.3066 343.348 69.7324 343.594 69.0059C343.852 68.2676 343.98 67.4473 343.98 66.5449ZM357.41 47.9824V75H352.348V47.9824H357.41ZM369.398 55.9805L361.137 65.4023L356.707 69.8848L354.861 66.2285L358.377 61.7637L363.316 55.9805H369.398ZM364.143 75L358.518 66.2109L362.016 63.1523L369.979 75H364.143ZM381.844 70.7109V62.2383C381.844 61.6289 381.744 61.1074 381.545 60.6738C381.346 60.2285 381.035 59.8828 380.613 59.6367C380.203 59.3906 379.67 59.2676 379.014 59.2676C378.451 59.2676 377.965 59.3672 377.555 59.5664C377.145 59.7539 376.828 60.0293 376.605 60.3926C376.383 60.7441 376.271 61.1602 376.271 61.6406H371.209C371.209 60.832 371.396 60.0645 371.771 59.3379C372.146 58.6113 372.691 57.9727 373.406 57.4219C374.121 56.8594 374.971 56.4199 375.955 56.1035C376.951 55.7871 378.064 55.6289 379.295 55.6289C380.771 55.6289 382.084 55.875 383.232 56.3672C384.381 56.8594 385.283 57.5977 385.939 58.582C386.607 59.5664 386.941 60.7969 386.941 62.2734V70.4121C386.941 71.4551 387.006 72.3105 387.135 72.9785C387.264 73.6348 387.451 74.209 387.697 74.7012V75H382.582C382.336 74.4844 382.148 73.8398 382.02 73.0664C381.902 72.2812 381.844 71.4961 381.844 70.7109ZM382.512 63.416L382.547 66.2812H379.717C379.049 66.2812 378.469 66.3574 377.977 66.5098C377.484 66.6621 377.08 66.8789 376.764 67.1602C376.447 67.4297 376.213 67.7461 376.061 68.1094C375.92 68.4727 375.85 68.8711 375.85 69.3047C375.85 69.7383 375.949 70.1309 376.148 70.4824C376.348 70.8223 376.635 71.0918 377.01 71.291C377.385 71.4785 377.824 71.5723 378.328 71.5723C379.09 71.5723 379.752 71.4199 380.314 71.1152C380.877 70.8105 381.311 70.4355 381.615 69.9902C381.932 69.5449 382.096 69.123 382.107 68.7246L383.443 70.8691C383.256 71.3496 382.998 71.8477 382.67 72.3633C382.354 72.8789 381.949 73.3652 381.457 73.8223C380.965 74.2676 380.373 74.6367 379.682 74.9297C378.99 75.2109 378.17 75.3516 377.221 75.3516C376.014 75.3516 374.918 75.1113 373.934 74.6309C372.961 74.1387 372.188 73.4648 371.613 72.6094C371.051 71.7422 370.77 70.7578 370.77 69.6562C370.77 68.6602 370.957 67.7754 371.332 67.002C371.707 66.2285 372.258 65.5781 372.984 65.0508C373.723 64.5117 374.643 64.1074 375.744 63.8379C376.846 63.5566 378.123 63.416 379.576 63.416H382.512Z" fill="#888888"/>
<path d="M117.637 100.188H127.234V126.191C127.234 129.29 126.587 131.915 125.293 134.066C123.999 136.199 122.185 137.812 119.852 138.906C117.518 140 114.775 140.547 111.621 140.547C108.504 140.547 105.76 140 103.391 138.906C101.039 137.812 99.1979 136.199 97.8672 134.066C96.5547 131.915 95.8984 129.29 95.8984 126.191V100.188H105.523V126.191C105.523 127.832 105.76 129.172 106.234 130.211C106.708 131.232 107.401 131.979 108.312 132.453C109.224 132.927 110.327 133.164 111.621 133.164C112.934 133.164 114.036 132.927 114.93 132.453C115.823 131.979 116.497 131.232 116.953 130.211C117.409 129.172 117.637 127.832 117.637 126.191V100.188ZM166.527 100.188V140H156.957L142.875 115.227V140H133.277V100.188H142.875L156.957 124.961V100.188H166.527ZM172.598 100.188H188.266C191.328 100.188 193.99 100.643 196.25 101.555C198.51 102.466 200.251 103.815 201.473 105.602C202.712 107.388 203.332 109.594 203.332 112.219C203.332 114.497 202.977 116.402 202.266 117.934C201.555 119.465 200.561 120.732 199.285 121.734C198.027 122.719 196.56 123.53 194.883 124.168L191.738 125.945H178.586L178.531 118.535H188.266C189.487 118.535 190.499 118.316 191.301 117.879C192.103 117.441 192.704 116.822 193.105 116.02C193.525 115.199 193.734 114.224 193.734 113.094C193.734 111.945 193.525 110.961 193.105 110.141C192.686 109.32 192.066 108.691 191.246 108.254C190.444 107.816 189.451 107.598 188.266 107.598H182.195V140H172.598V100.188ZM194.391 140L185.586 122.391L195.758 122.336L204.672 139.59V140H194.391ZM236.527 132.617V140H215.309V132.617H236.527ZM218.727 100.188V140H209.129V100.188H218.727ZM233.793 115.992V123.129H215.309V115.992H233.793ZM236.609 100.188V107.598H215.309V100.188H236.609ZM257.336 108.555L247.629 140H237.32L251.949 100.188H258.484L257.336 108.555ZM265.375 140L255.641 108.555L254.383 100.188H261L275.711 140H265.375ZM264.992 125.152V132.562H244.566V125.152H264.992ZM304.941 132.617V140H284.816V132.617H304.941ZM288.234 100.188V140H278.637V100.188H288.234ZM318.586 100.188V140H308.988V100.188H318.586ZM334.062 116.758V124.141H315.852V116.758H334.062ZM335.621 100.188V107.598H315.852V100.188H335.621ZM349.812 100.188V140H340.242V100.188H349.812ZM375.023 100.188V140H365.426V100.188H375.023ZM387 100.188V107.598H353.723V100.188H387Z" fill="black"/>
<rect x="93" y="178" width="877" height="77" rx="10" fill="#D3D3D3"/>
<rect x="111" y="196" width="91" height="41" rx="3" fill="#424242"/>
<rect x="111" y="196" width="91" height="41" rx="3" stroke="#424242" stroke-width="4"/>
<path d="M134.141 210.203H139.177C140.161 210.203 141.017 210.35 141.743 210.643C142.47 210.936 143.029 211.369 143.422 211.943C143.82 212.518 144.02 213.227 144.02 214.07C144.02 214.803 143.905 215.415 143.677 215.907C143.448 216.399 143.129 216.807 142.719 217.129C142.314 217.445 141.843 217.706 141.304 217.911L140.293 218.482H136.065L136.048 216.101H139.177C139.569 216.101 139.895 216.03 140.152 215.89C140.41 215.749 140.604 215.55 140.732 215.292C140.867 215.028 140.935 214.715 140.935 214.352C140.935 213.982 140.867 213.666 140.732 213.402C140.598 213.139 140.398 212.937 140.135 212.796C139.877 212.655 139.558 212.585 139.177 212.585H137.226V223H134.141V210.203ZM141.146 223L138.315 217.34L141.585 217.322L144.45 222.868V223H141.146ZM150.348 223.176C149.574 223.176 148.883 223.056 148.273 222.815C147.664 222.569 147.148 222.232 146.727 221.805C146.311 221.377 145.991 220.885 145.769 220.328C145.552 219.771 145.443 219.183 145.443 218.562V218.228C145.443 217.53 145.54 216.886 145.733 216.294C145.927 215.696 146.214 215.175 146.595 214.729C146.976 214.284 147.453 213.938 148.027 213.692C148.602 213.44 149.27 213.314 150.031 213.314C150.705 213.314 151.309 213.423 151.842 213.64C152.375 213.856 152.826 214.167 153.195 214.571C153.57 214.976 153.854 215.465 154.048 216.039C154.247 216.613 154.347 217.258 154.347 217.973V219.177H146.577V217.322H151.455V217.094C151.461 216.777 151.405 216.508 151.288 216.285C151.177 216.062 151.013 215.893 150.796 215.775C150.579 215.658 150.315 215.6 150.005 215.6C149.683 215.6 149.416 215.67 149.205 215.811C149 215.951 148.839 216.145 148.722 216.391C148.61 216.631 148.531 216.909 148.484 217.226C148.438 217.542 148.414 217.876 148.414 218.228V218.562C148.414 218.913 148.461 219.232 148.555 219.52C148.654 219.807 148.795 220.053 148.977 220.258C149.164 220.457 149.387 220.612 149.645 220.724C149.908 220.835 150.207 220.891 150.541 220.891C150.945 220.891 151.344 220.814 151.736 220.662C152.129 220.51 152.466 220.258 152.747 219.906L154.092 221.506C153.898 221.781 153.623 222.048 153.266 222.306C152.914 222.563 152.492 222.774 152 222.938C151.508 223.097 150.957 223.176 150.348 223.176ZM160.49 220.609V216.689C160.49 216.42 160.452 216.188 160.376 215.995C160.3 215.802 160.18 215.652 160.016 215.547C159.852 215.436 159.632 215.38 159.356 215.38C159.134 215.38 158.943 215.418 158.785 215.494C158.627 215.57 158.507 215.685 158.425 215.837C158.343 215.989 158.302 216.183 158.302 216.417H155.34C155.34 215.978 155.437 215.57 155.63 215.195C155.829 214.814 156.11 214.483 156.474 214.202C156.843 213.921 157.282 213.704 157.792 213.552C158.308 213.394 158.882 213.314 159.515 213.314C160.271 213.314 160.944 213.44 161.536 213.692C162.134 213.944 162.605 214.322 162.951 214.826C163.297 215.324 163.47 215.951 163.47 216.707V220.601C163.47 221.222 163.505 221.693 163.575 222.016C163.646 222.332 163.745 222.61 163.874 222.851V223H160.903C160.763 222.707 160.657 222.35 160.587 221.928C160.522 221.5 160.49 221.061 160.49 220.609ZM160.851 217.19L160.868 218.772H159.559C159.283 218.772 159.049 218.811 158.855 218.887C158.668 218.963 158.516 219.068 158.398 219.203C158.287 219.332 158.205 219.479 158.152 219.643C158.105 219.807 158.082 219.979 158.082 220.161C158.082 220.337 158.123 220.495 158.205 220.636C158.293 220.771 158.41 220.876 158.557 220.952C158.703 221.028 158.867 221.066 159.049 221.066C159.377 221.066 159.655 221.005 159.884 220.882C160.118 220.753 160.297 220.598 160.42 220.416C160.543 220.234 160.604 220.064 160.604 219.906L161.255 221.119C161.138 221.354 161.003 221.591 160.851 221.831C160.704 222.071 160.52 222.294 160.297 222.499C160.08 222.698 159.813 222.862 159.497 222.991C159.181 223.114 158.797 223.176 158.346 223.176C157.76 223.176 157.221 223.056 156.729 222.815C156.242 222.575 155.853 222.241 155.56 221.813C155.267 221.38 155.12 220.882 155.12 220.319C155.12 219.827 155.208 219.388 155.384 219.001C155.565 218.614 155.838 218.286 156.201 218.017C156.564 217.747 157.027 217.542 157.59 217.401C158.152 217.261 158.814 217.19 159.576 217.19H160.851ZM169.13 220.891C169.405 220.891 169.64 220.841 169.833 220.741C170.032 220.636 170.182 220.489 170.281 220.302C170.387 220.108 170.437 219.877 170.431 219.607H173.217C173.223 220.322 173.047 220.949 172.689 221.488C172.338 222.021 171.857 222.438 171.248 222.736C170.645 223.029 169.962 223.176 169.2 223.176C168.456 223.176 167.806 223.056 167.249 222.815C166.692 222.569 166.227 222.229 165.852 221.796C165.482 221.356 165.204 220.844 165.017 220.258C164.835 219.672 164.744 219.036 164.744 218.351V218.148C164.744 217.463 164.835 216.827 165.017 216.241C165.204 215.649 165.482 215.137 165.852 214.703C166.227 214.264 166.689 213.924 167.24 213.684C167.797 213.438 168.444 213.314 169.183 213.314C169.974 213.314 170.671 213.464 171.274 213.763C171.884 214.062 172.361 214.495 172.707 215.063C173.053 215.632 173.223 216.32 173.217 217.129H170.431C170.437 216.842 170.393 216.584 170.299 216.355C170.205 216.127 170.059 215.945 169.859 215.811C169.666 215.67 169.417 215.6 169.112 215.6C168.808 215.6 168.562 215.667 168.374 215.802C168.187 215.937 168.043 216.124 167.943 216.364C167.85 216.599 167.785 216.868 167.75 217.173C167.721 217.478 167.706 217.803 167.706 218.148V218.351C167.706 218.702 167.721 219.033 167.75 219.344C167.785 219.648 167.853 219.918 167.952 220.152C168.052 220.381 168.195 220.562 168.383 220.697C168.57 220.826 168.819 220.891 169.13 220.891ZM179.492 213.49V215.547H173.762V213.49H179.492ZM174.966 211.126H177.928V219.897C177.928 220.149 177.957 220.346 178.016 220.486C178.074 220.621 178.174 220.718 178.314 220.776C178.461 220.829 178.654 220.855 178.895 220.855C179.064 220.855 179.205 220.853 179.316 220.847C179.428 220.835 179.533 220.82 179.633 220.803V222.921C179.381 223.003 179.117 223.064 178.842 223.105C178.566 223.152 178.273 223.176 177.963 223.176C177.33 223.176 176.788 223.076 176.337 222.877C175.892 222.678 175.552 222.364 175.317 221.937C175.083 221.509 174.966 220.952 174.966 220.267V211.126Z" fill="white"/>
<rect x="222" y="196" width="104" height="41" rx="3" fill="#424242"/>
<rect x="222" y="196" width="104" height="41" rx="3" stroke="#424242" stroke-width="4"/>
<path d="M253.812 220.627V223H247.343V220.627H253.812ZM248.441 210.203V223H245.356V210.203H248.441ZM259.911 220.609V216.689C259.911 216.42 259.873 216.188 259.797 215.995C259.721 215.802 259.601 215.652 259.437 215.547C259.272 215.436 259.053 215.38 258.777 215.38C258.555 215.38 258.364 215.418 258.206 215.494C258.048 215.57 257.928 215.685 257.846 215.837C257.764 215.989 257.723 216.183 257.723 216.417H254.761C254.761 215.978 254.857 215.57 255.051 215.195C255.25 214.814 255.531 214.483 255.895 214.202C256.264 213.921 256.703 213.704 257.213 213.552C257.729 213.394 258.303 213.314 258.936 213.314C259.691 213.314 260.365 213.44 260.957 213.692C261.555 213.944 262.026 214.322 262.372 214.826C262.718 215.324 262.891 215.951 262.891 216.707V220.601C262.891 221.222 262.926 221.693 262.996 222.016C263.066 222.332 263.166 222.61 263.295 222.851V223H260.324C260.184 222.707 260.078 222.35 260.008 221.928C259.943 221.5 259.911 221.061 259.911 220.609ZM260.271 217.19L260.289 218.772H258.979C258.704 218.772 258.47 218.811 258.276 218.887C258.089 218.963 257.937 219.068 257.819 219.203C257.708 219.332 257.626 219.479 257.573 219.643C257.526 219.807 257.503 219.979 257.503 220.161C257.503 220.337 257.544 220.495 257.626 220.636C257.714 220.771 257.831 220.876 257.978 220.952C258.124 221.028 258.288 221.066 258.47 221.066C258.798 221.066 259.076 221.005 259.305 220.882C259.539 220.753 259.718 220.598 259.841 220.416C259.964 220.234 260.025 220.064 260.025 219.906L260.676 221.119C260.559 221.354 260.424 221.591 260.271 221.831C260.125 222.071 259.94 222.294 259.718 222.499C259.501 222.698 259.234 222.862 258.918 222.991C258.602 223.114 258.218 223.176 257.767 223.176C257.181 223.176 256.642 223.056 256.149 222.815C255.663 222.575 255.273 222.241 254.98 221.813C254.688 221.38 254.541 220.882 254.541 220.319C254.541 219.827 254.629 219.388 254.805 219.001C254.986 218.614 255.259 218.286 255.622 218.017C255.985 217.747 256.448 217.542 257.011 217.401C257.573 217.261 258.235 217.19 258.997 217.19H260.271ZM267.522 215.846V223H264.561V213.49H267.329L267.522 215.846ZM270.335 213.42L270.282 216.171C270.165 216.159 270.007 216.145 269.808 216.127C269.608 216.109 269.441 216.101 269.307 216.101C268.961 216.101 268.662 216.142 268.41 216.224C268.164 216.3 267.959 216.417 267.795 216.575C267.637 216.728 267.52 216.921 267.443 217.155C267.373 217.39 267.341 217.662 267.347 217.973L266.811 217.621C266.811 216.982 266.872 216.402 266.995 215.881C267.124 215.354 267.306 214.899 267.54 214.519C267.774 214.132 268.059 213.836 268.393 213.631C268.727 213.42 269.102 213.314 269.518 213.314C269.664 213.314 269.808 213.323 269.948 213.341C270.095 213.358 270.224 213.385 270.335 213.42ZM276.03 220.609V216.689C276.03 216.42 275.992 216.188 275.916 215.995C275.84 215.802 275.72 215.652 275.556 215.547C275.392 215.436 275.172 215.38 274.896 215.38C274.674 215.38 274.483 215.418 274.325 215.494C274.167 215.57 274.047 215.685 273.965 215.837C273.883 215.989 273.842 216.183 273.842 216.417H270.88C270.88 215.978 270.977 215.57 271.17 215.195C271.369 214.814 271.65 214.483 272.014 214.202C272.383 213.921 272.822 213.704 273.332 213.552C273.848 213.394 274.422 213.314 275.055 213.314C275.811 213.314 276.484 213.44 277.076 213.692C277.674 213.944 278.146 214.322 278.491 214.826C278.837 215.324 279.01 215.951 279.01 216.707V220.601C279.01 221.222 279.045 221.693 279.115 222.016C279.186 222.332 279.285 222.61 279.414 222.851V223H276.443C276.303 222.707 276.197 222.35 276.127 221.928C276.062 221.5 276.03 221.061 276.03 220.609ZM276.391 217.19L276.408 218.772H275.099C274.823 218.772 274.589 218.811 274.396 218.887C274.208 218.963 274.056 219.068 273.938 219.203C273.827 219.332 273.745 219.479 273.692 219.643C273.646 219.807 273.622 219.979 273.622 220.161C273.622 220.337 273.663 220.495 273.745 220.636C273.833 220.771 273.95 220.876 274.097 220.952C274.243 221.028 274.407 221.066 274.589 221.066C274.917 221.066 275.195 221.005 275.424 220.882C275.658 220.753 275.837 220.598 275.96 220.416C276.083 220.234 276.145 220.064 276.145 219.906L276.795 221.119C276.678 221.354 276.543 221.591 276.391 221.831C276.244 222.071 276.06 222.294 275.837 222.499C275.62 222.698 275.354 222.862 275.037 222.991C274.721 223.114 274.337 223.176 273.886 223.176C273.3 223.176 272.761 223.056 272.269 222.815C271.782 222.575 271.393 222.241 271.1 221.813C270.807 221.38 270.66 220.882 270.66 220.319C270.66 219.827 270.748 219.388 270.924 219.001C271.105 218.614 271.378 218.286 271.741 218.017C272.104 217.747 272.567 217.542 273.13 217.401C273.692 217.261 274.354 217.19 275.116 217.19H276.391ZM283.94 220.97L285.812 213.49H288.933L285.821 223H283.976L283.94 220.97ZM282.833 213.49L284.679 220.97L284.661 223H282.807L279.704 213.49H282.833ZM294.294 223.176C293.521 223.176 292.829 223.056 292.22 222.815C291.61 222.569 291.095 222.232 290.673 221.805C290.257 221.377 289.938 220.885 289.715 220.328C289.498 219.771 289.39 219.183 289.39 218.562V218.228C289.39 217.53 289.486 216.886 289.68 216.294C289.873 215.696 290.16 215.175 290.541 214.729C290.922 214.284 291.399 213.938 291.974 213.692C292.548 213.44 293.216 213.314 293.978 213.314C294.651 213.314 295.255 213.423 295.788 213.64C296.321 213.856 296.772 214.167 297.142 214.571C297.517 214.976 297.801 215.465 297.994 216.039C298.193 216.613 298.293 217.258 298.293 217.973V219.177H290.523V217.322H295.401V217.094C295.407 216.777 295.352 216.508 295.234 216.285C295.123 216.062 294.959 215.893 294.742 215.775C294.525 215.658 294.262 215.6 293.951 215.6C293.629 215.6 293.362 215.67 293.151 215.811C292.946 215.951 292.785 216.145 292.668 216.391C292.557 216.631 292.478 216.909 292.431 217.226C292.384 217.542 292.36 217.876 292.36 218.228V218.562C292.36 218.913 292.407 219.232 292.501 219.52C292.601 219.807 292.741 220.053 292.923 220.258C293.11 220.457 293.333 220.612 293.591 220.724C293.854 220.835 294.153 220.891 294.487 220.891C294.892 220.891 295.29 220.814 295.683 220.662C296.075 220.51 296.412 220.258 296.693 219.906L298.038 221.506C297.845 221.781 297.569 222.048 297.212 222.306C296.86 222.563 296.438 222.774 295.946 222.938C295.454 223.097 294.903 223.176 294.294 223.176ZM302.626 209.5V223H299.655V209.5H302.626Z" fill="white"/>
<rect x="346" y="196" width="102" height="41" rx="3" fill="#424242"/>
<rect x="346" y="196" width="102" height="41" rx="3" stroke="#424242" stroke-width="4"/>
<path d="M374.166 218.658H370.984V216.276H374.166C374.6 216.276 374.951 216.203 375.221 216.057C375.49 215.91 375.687 215.708 375.81 215.45C375.938 215.187 376.003 214.891 376.003 214.562C376.003 214.211 375.938 213.886 375.81 213.587C375.687 213.288 375.49 213.048 375.221 212.866C374.951 212.679 374.6 212.585 374.166 212.585H372.145V223H369.06V210.203H374.166C375.191 210.203 376.073 210.391 376.812 210.766C377.556 211.141 378.127 211.656 378.525 212.312C378.924 212.963 379.123 213.707 379.123 214.545C379.123 215.371 378.924 216.092 378.525 216.707C378.127 217.322 377.556 217.803 376.812 218.148C376.073 218.488 375.191 218.658 374.166 218.658ZM383.702 221.884L386.163 213.49H389.345L385.521 224.415C385.439 224.655 385.331 224.913 385.196 225.188C385.062 225.47 384.877 225.736 384.643 225.988C384.408 226.24 384.106 226.445 383.737 226.604C383.374 226.762 382.923 226.841 382.384 226.841C382.097 226.841 381.886 226.826 381.751 226.797C381.622 226.773 381.423 226.729 381.153 226.665V224.547C381.229 224.547 381.294 224.547 381.347 224.547C381.405 224.547 381.47 224.547 381.54 224.547C381.856 224.547 382.108 224.515 382.296 224.45C382.489 224.386 382.636 224.292 382.735 224.169C382.841 224.046 382.923 223.896 382.981 223.721L383.702 221.884ZM383.078 213.49L384.95 220.144L385.275 223.281H383.289L379.905 213.49H383.078ZM395.128 213.49V215.547H389.397V213.49H395.128ZM390.602 211.126H393.563V219.897C393.563 220.149 393.593 220.346 393.651 220.486C393.71 220.621 393.81 220.718 393.95 220.776C394.097 220.829 394.29 220.855 394.53 220.855C394.7 220.855 394.841 220.853 394.952 220.847C395.063 220.835 395.169 220.82 395.269 220.803V222.921C395.017 223.003 394.753 223.064 394.478 223.105C394.202 223.152 393.909 223.176 393.599 223.176C392.966 223.176 392.424 223.076 391.973 222.877C391.527 222.678 391.188 222.364 390.953 221.937C390.719 221.509 390.602 220.952 390.602 220.267V211.126ZM399.206 209.5V223H396.244V209.5H399.206ZM398.854 217.92L398.16 217.938C398.16 217.27 398.242 216.654 398.406 216.092C398.57 215.529 398.805 215.04 399.109 214.624C399.414 214.208 399.78 213.886 400.208 213.657C400.636 213.429 401.11 213.314 401.632 213.314C402.101 213.314 402.528 213.382 402.915 213.517C403.308 213.651 403.645 213.868 403.926 214.167C404.213 214.466 404.433 214.855 404.585 215.336C404.743 215.816 404.822 216.402 404.822 217.094V223H401.843V217.076C401.843 216.689 401.787 216.391 401.676 216.18C401.57 215.963 401.418 215.813 401.219 215.731C401.02 215.644 400.776 215.6 400.489 215.6C400.144 215.6 399.862 215.658 399.646 215.775C399.429 215.893 399.262 216.057 399.145 216.268C399.033 216.473 398.957 216.716 398.916 216.997C398.875 217.278 398.854 217.586 398.854 217.92ZM406.097 218.342V218.157C406.097 217.46 406.196 216.818 406.396 216.232C406.595 215.641 406.888 215.128 407.274 214.694C407.661 214.261 408.139 213.924 408.707 213.684C409.275 213.438 409.932 213.314 410.676 213.314C411.426 213.314 412.085 213.438 412.653 213.684C413.228 213.924 413.708 214.261 414.095 214.694C414.481 215.128 414.774 215.641 414.974 216.232C415.173 216.818 415.272 217.46 415.272 218.157V218.342C415.272 219.033 415.173 219.675 414.974 220.267C414.774 220.853 414.481 221.365 414.095 221.805C413.708 222.238 413.23 222.575 412.662 222.815C412.094 223.056 411.438 223.176 410.693 223.176C409.949 223.176 409.29 223.056 408.716 222.815C408.142 222.575 407.661 222.238 407.274 221.805C406.888 221.365 406.595 220.853 406.396 220.267C406.196 219.675 406.097 219.033 406.097 218.342ZM409.059 218.157V218.342C409.059 218.699 409.085 219.033 409.138 219.344C409.19 219.654 409.278 219.927 409.401 220.161C409.524 220.39 409.691 220.568 409.902 220.697C410.113 220.826 410.377 220.891 410.693 220.891C411.004 220.891 411.262 220.826 411.467 220.697C411.678 220.568 411.845 220.39 411.968 220.161C412.091 219.927 412.179 219.654 412.231 219.344C412.284 219.033 412.311 218.699 412.311 218.342V218.157C412.311 217.812 412.284 217.486 412.231 217.182C412.179 216.871 412.091 216.599 411.968 216.364C411.845 216.124 411.678 215.937 411.467 215.802C411.256 215.667 410.992 215.6 410.676 215.6C410.365 215.6 410.104 215.667 409.894 215.802C409.688 215.937 409.524 216.124 409.401 216.364C409.278 216.599 409.19 216.871 409.138 217.182C409.085 217.486 409.059 217.812 409.059 218.157ZM419.5 215.521V223H416.538V213.49H419.315L419.5 215.521ZM419.148 217.92L418.454 217.938C418.454 217.211 418.542 216.563 418.718 215.995C418.894 215.421 419.143 214.935 419.465 214.536C419.787 214.138 420.171 213.836 420.616 213.631C421.067 213.42 421.568 213.314 422.119 213.314C422.559 213.314 422.96 213.379 423.323 213.508C423.692 213.637 424.009 213.845 424.272 214.132C424.542 214.419 424.747 214.8 424.888 215.274C425.034 215.743 425.107 216.323 425.107 217.015V223H422.128V217.006C422.128 216.625 422.075 216.335 421.97 216.136C421.864 215.931 421.712 215.79 421.513 215.714C421.313 215.638 421.07 215.6 420.783 215.6C420.479 215.6 420.221 215.658 420.01 215.775C419.799 215.893 419.629 216.057 419.5 216.268C419.377 216.473 419.286 216.716 419.228 216.997C419.175 217.278 419.148 217.586 419.148 217.92Z" fill="white"/>
<rect x="472" y="196" width="132" height="41" rx="3" fill="#424242"/>
<rect x="472" y="196" width="132" height="41" rx="3" stroke="#424242" stroke-width="4"/>
<path d="M500.559 218.983V210.203H503.635V218.983C503.635 219.839 503.438 220.58 503.046 221.207C502.659 221.834 502.132 222.32 501.464 222.666C500.802 223.006 500.058 223.176 499.231 223.176C498.376 223.176 497.614 223.032 496.946 222.745C496.284 222.458 495.763 222.016 495.382 221.418C495.007 220.82 494.819 220.059 494.819 219.133H497.913C497.913 219.566 497.963 219.906 498.062 220.152C498.162 220.393 498.309 220.562 498.502 220.662C498.701 220.756 498.944 220.803 499.231 220.803C499.513 220.803 499.75 220.732 499.943 220.592C500.143 220.445 500.295 220.237 500.4 219.968C500.506 219.692 500.559 219.364 500.559 218.983ZM510.394 220.609V216.689C510.394 216.42 510.355 216.188 510.279 215.995C510.203 215.802 510.083 215.652 509.919 215.547C509.755 215.436 509.535 215.38 509.26 215.38C509.037 215.38 508.847 215.418 508.688 215.494C508.53 215.57 508.41 215.685 508.328 215.837C508.246 215.989 508.205 216.183 508.205 216.417H505.243C505.243 215.978 505.34 215.57 505.533 215.195C505.732 214.814 506.014 214.483 506.377 214.202C506.746 213.921 507.186 213.704 507.695 213.552C508.211 213.394 508.785 213.314 509.418 213.314C510.174 213.314 510.848 213.44 511.439 213.692C512.037 213.944 512.509 214.322 512.854 214.826C513.2 215.324 513.373 215.951 513.373 216.707V220.601C513.373 221.222 513.408 221.693 513.479 222.016C513.549 222.332 513.648 222.61 513.777 222.851V223H510.807C510.666 222.707 510.561 222.35 510.49 221.928C510.426 221.5 510.394 221.061 510.394 220.609ZM510.754 217.19L510.771 218.772H509.462C509.187 218.772 508.952 218.811 508.759 218.887C508.571 218.963 508.419 219.068 508.302 219.203C508.19 219.332 508.108 219.479 508.056 219.643C508.009 219.807 507.985 219.979 507.985 220.161C507.985 220.337 508.026 220.495 508.108 220.636C508.196 220.771 508.313 220.876 508.46 220.952C508.606 221.028 508.771 221.066 508.952 221.066C509.28 221.066 509.559 221.005 509.787 220.882C510.021 220.753 510.2 220.598 510.323 220.416C510.446 220.234 510.508 220.064 510.508 219.906L511.158 221.119C511.041 221.354 510.906 221.591 510.754 221.831C510.607 222.071 510.423 222.294 510.2 222.499C509.983 222.698 509.717 222.862 509.4 222.991C509.084 223.114 508.7 223.176 508.249 223.176C507.663 223.176 507.124 223.056 506.632 222.815C506.146 222.575 505.756 222.241 505.463 221.813C505.17 221.38 505.023 220.882 505.023 220.319C505.023 219.827 505.111 219.388 505.287 219.001C505.469 218.614 505.741 218.286 506.104 218.017C506.468 217.747 506.931 217.542 507.493 217.401C508.056 217.261 508.718 217.19 509.479 217.19H510.754ZM518.304 220.97L520.176 213.49H523.296L520.185 223H518.339L518.304 220.97ZM517.196 213.49L519.042 220.97L519.024 223H517.17L514.067 213.49H517.196ZM528.974 220.609V216.689C528.974 216.42 528.936 216.188 528.859 215.995C528.783 215.802 528.663 215.652 528.499 215.547C528.335 215.436 528.115 215.38 527.84 215.38C527.617 215.38 527.427 215.418 527.269 215.494C527.11 215.57 526.99 215.685 526.908 215.837C526.826 215.989 526.785 216.183 526.785 216.417H523.823C523.823 215.978 523.92 215.57 524.113 215.195C524.312 214.814 524.594 214.483 524.957 214.202C525.326 213.921 525.766 213.704 526.275 213.552C526.791 213.394 527.365 213.314 527.998 213.314C528.754 213.314 529.428 213.44 530.02 213.692C530.617 213.944 531.089 214.322 531.435 214.826C531.78 215.324 531.953 215.951 531.953 216.707V220.601C531.953 221.222 531.988 221.693 532.059 222.016C532.129 222.332 532.229 222.61 532.357 222.851V223H529.387C529.246 222.707 529.141 222.35 529.07 221.928C529.006 221.5 528.974 221.061 528.974 220.609ZM529.334 217.19L529.352 218.772H528.042C527.767 218.772 527.532 218.811 527.339 218.887C527.151 218.963 526.999 219.068 526.882 219.203C526.771 219.332 526.688 219.479 526.636 219.643C526.589 219.807 526.565 219.979 526.565 220.161C526.565 220.337 526.606 220.495 526.688 220.636C526.776 220.771 526.894 220.876 527.04 220.952C527.187 221.028 527.351 221.066 527.532 221.066C527.86 221.066 528.139 221.005 528.367 220.882C528.602 220.753 528.78 220.598 528.903 220.416C529.026 220.234 529.088 220.064 529.088 219.906L529.738 221.119C529.621 221.354 529.486 221.591 529.334 221.831C529.188 222.071 529.003 222.294 528.78 222.499C528.563 222.698 528.297 222.862 527.98 222.991C527.664 223.114 527.28 223.176 526.829 223.176C526.243 223.176 525.704 223.056 525.212 222.815C524.726 222.575 524.336 222.241 524.043 221.813C523.75 221.38 523.604 220.882 523.604 220.319C523.604 219.827 523.691 219.388 523.867 219.001C524.049 218.614 524.321 218.286 524.685 218.017C525.048 217.747 525.511 217.542 526.073 217.401C526.636 217.261 527.298 217.19 528.06 217.19H529.334ZM540.329 219.599C540.329 219.399 540.3 219.221 540.241 219.062C540.183 218.898 540.074 218.746 539.916 218.605C539.758 218.465 539.529 218.324 539.23 218.184C538.938 218.037 538.551 217.885 538.07 217.727C537.508 217.539 536.966 217.328 536.444 217.094C535.923 216.854 535.457 216.575 535.047 216.259C534.637 215.937 534.312 215.562 534.071 215.134C533.831 214.7 533.711 214.196 533.711 213.622C533.711 213.071 533.834 212.576 534.08 212.137C534.326 211.691 534.669 211.313 535.108 211.003C535.554 210.687 536.075 210.446 536.673 210.282C537.271 210.112 537.924 210.027 538.633 210.027C539.57 210.027 540.396 210.191 541.111 210.52C541.832 210.842 542.395 211.302 542.799 211.899C543.209 212.491 543.414 213.191 543.414 214H540.347C540.347 213.678 540.279 213.394 540.145 213.147C540.016 212.901 539.819 212.708 539.556 212.567C539.292 212.427 538.961 212.356 538.562 212.356C538.176 212.356 537.851 212.415 537.587 212.532C537.323 212.649 537.124 212.808 536.989 213.007C536.854 213.2 536.787 213.414 536.787 213.648C536.787 213.842 536.84 214.018 536.945 214.176C537.057 214.328 537.212 214.472 537.411 214.606C537.616 214.741 537.862 214.87 538.149 214.993C538.442 215.116 538.771 215.236 539.134 215.354C539.813 215.57 540.417 215.813 540.944 216.083C541.478 216.347 541.926 216.648 542.289 216.988C542.658 217.322 542.937 217.703 543.124 218.131C543.317 218.559 543.414 219.042 543.414 219.581C543.414 220.155 543.303 220.665 543.08 221.11C542.857 221.556 542.538 221.934 542.122 222.244C541.706 222.549 541.208 222.78 540.628 222.938C540.048 223.097 539.4 223.176 538.686 223.176C538.029 223.176 537.382 223.094 536.743 222.93C536.11 222.76 535.536 222.502 535.021 222.156C534.505 221.805 534.092 221.356 533.781 220.812C533.477 220.261 533.324 219.607 533.324 218.852H536.418C536.418 219.227 536.468 219.543 536.567 219.801C536.667 220.059 536.813 220.267 537.007 220.425C537.2 220.577 537.438 220.688 537.719 220.759C538 220.823 538.322 220.855 538.686 220.855C539.078 220.855 539.395 220.8 539.635 220.688C539.875 220.571 540.051 220.419 540.162 220.231C540.273 220.038 540.329 219.827 540.329 219.599ZM548.881 220.891C549.156 220.891 549.391 220.841 549.584 220.741C549.783 220.636 549.933 220.489 550.032 220.302C550.138 220.108 550.188 219.877 550.182 219.607H552.968C552.974 220.322 552.798 220.949 552.44 221.488C552.089 222.021 551.608 222.438 550.999 222.736C550.396 223.029 549.713 223.176 548.951 223.176C548.207 223.176 547.557 223.056 547 222.815C546.443 222.569 545.978 222.229 545.603 221.796C545.233 221.356 544.955 220.844 544.768 220.258C544.586 219.672 544.495 219.036 544.495 218.351V218.148C544.495 217.463 544.586 216.827 544.768 216.241C544.955 215.649 545.233 215.137 545.603 214.703C545.978 214.264 546.44 213.924 546.991 213.684C547.548 213.438 548.195 213.314 548.934 213.314C549.725 213.314 550.422 213.464 551.025 213.763C551.635 214.062 552.112 214.495 552.458 215.063C552.804 215.632 552.974 216.32 552.968 217.129H550.182C550.188 216.842 550.144 216.584 550.05 216.355C549.956 216.127 549.81 215.945 549.61 215.811C549.417 215.67 549.168 215.6 548.863 215.6C548.559 215.6 548.312 215.667 548.125 215.802C547.938 215.937 547.794 216.124 547.694 216.364C547.601 216.599 547.536 216.868 547.501 217.173C547.472 217.478 547.457 217.803 547.457 218.148V218.351C547.457 218.702 547.472 219.033 547.501 219.344C547.536 219.648 547.604 219.918 547.703 220.152C547.803 220.381 547.946 220.562 548.134 220.697C548.321 220.826 548.57 220.891 548.881 220.891ZM557.222 215.846V223H554.26V213.49H557.028L557.222 215.846ZM560.034 213.42L559.981 216.171C559.864 216.159 559.706 216.145 559.507 216.127C559.308 216.109 559.141 216.101 559.006 216.101C558.66 216.101 558.361 216.142 558.109 216.224C557.863 216.3 557.658 216.417 557.494 216.575C557.336 216.728 557.219 216.921 557.143 217.155C557.072 217.39 557.04 217.662 557.046 217.973L556.51 217.621C556.51 216.982 556.571 216.402 556.694 215.881C556.823 215.354 557.005 214.899 557.239 214.519C557.474 214.132 557.758 213.836 558.092 213.631C558.426 213.42 558.801 213.314 559.217 213.314C559.363 213.314 559.507 213.323 559.647 213.341C559.794 213.358 559.923 213.385 560.034 213.42ZM564.183 213.49V223H561.212V213.49H564.183ZM561.036 211.038C561.036 210.616 561.188 210.271 561.493 210.001C561.798 209.731 562.193 209.597 562.68 209.597C563.166 209.597 563.562 209.731 563.866 210.001C564.171 210.271 564.323 210.616 564.323 211.038C564.323 211.46 564.171 211.806 563.866 212.075C563.562 212.345 563.166 212.479 562.68 212.479C562.193 212.479 561.798 212.345 561.493 212.075C561.188 211.806 561.036 211.46 561.036 211.038ZM568.999 215.318V226.656H566.037V213.49H568.797L568.999 215.318ZM574.835 218.131V218.315C574.835 219.007 574.756 219.648 574.598 220.24C574.439 220.832 574.205 221.348 573.895 221.787C573.584 222.227 573.197 222.569 572.734 222.815C572.277 223.056 571.747 223.176 571.144 223.176C570.575 223.176 570.086 223.05 569.676 222.798C569.266 222.546 568.923 222.197 568.647 221.752C568.372 221.307 568.149 220.797 567.979 220.223C567.81 219.648 567.675 219.042 567.575 218.403V218.166C567.675 217.48 567.81 216.845 567.979 216.259C568.149 215.667 568.372 215.151 568.647 214.712C568.923 214.272 569.263 213.93 569.667 213.684C570.077 213.438 570.566 213.314 571.135 213.314C571.738 213.314 572.269 213.429 572.726 213.657C573.188 213.886 573.575 214.214 573.886 214.642C574.202 215.063 574.439 215.57 574.598 216.162C574.756 216.754 574.835 217.41 574.835 218.131ZM571.873 218.315V218.131C571.873 217.762 571.847 217.425 571.794 217.12C571.741 216.81 571.656 216.54 571.539 216.312C571.428 216.083 571.278 215.907 571.091 215.784C570.903 215.661 570.672 215.6 570.396 215.6C570.08 215.6 569.813 215.649 569.597 215.749C569.386 215.843 569.216 215.989 569.087 216.188C568.964 216.382 568.876 216.625 568.823 216.918C568.776 217.205 568.756 217.542 568.762 217.929V218.649C568.75 219.095 568.794 219.487 568.894 219.827C568.993 220.161 569.166 220.422 569.412 220.609C569.658 220.797 569.992 220.891 570.414 220.891C570.695 220.891 570.93 220.826 571.117 220.697C571.305 220.562 571.454 220.378 571.565 220.144C571.677 219.903 571.756 219.628 571.803 219.317C571.85 219.007 571.873 218.673 571.873 218.315ZM581.163 213.49V215.547H575.433V213.49H581.163ZM576.637 211.126H579.599V219.897C579.599 220.149 579.628 220.346 579.687 220.486C579.745 220.621 579.845 220.718 579.985 220.776C580.132 220.829 580.325 220.855 580.565 220.855C580.735 220.855 580.876 220.853 580.987 220.847C581.099 220.835 581.204 220.82 581.304 220.803V222.921C581.052 223.003 580.788 223.064 580.513 223.105C580.237 223.152 579.944 223.176 579.634 223.176C579.001 223.176 578.459 223.076 578.008 222.877C577.562 222.678 577.223 222.364 576.988 221.937C576.754 221.509 576.637 220.952 576.637 220.267V211.126Z" fill="white"/>
<rect x="624" y="196" width="71" height="41" rx="3" fill="#424242"/>
<rect x="624" y="196" width="71" height="41" rx="3" stroke="#424242" stroke-width="4"/>
<path d="M653.893 219.599C653.893 219.399 653.863 219.221 653.805 219.062C653.746 218.898 653.638 218.746 653.479 218.605C653.321 218.465 653.093 218.324 652.794 218.184C652.501 218.037 652.114 217.885 651.634 217.727C651.071 217.539 650.529 217.328 650.008 217.094C649.486 216.854 649.021 216.575 648.61 216.259C648.2 215.937 647.875 215.562 647.635 215.134C647.395 214.7 647.274 214.196 647.274 213.622C647.274 213.071 647.397 212.576 647.644 212.137C647.89 211.691 648.232 211.313 648.672 211.003C649.117 210.687 649.639 210.446 650.236 210.282C650.834 210.112 651.487 210.027 652.196 210.027C653.134 210.027 653.96 210.191 654.675 210.52C655.396 210.842 655.958 211.302 656.362 211.899C656.772 212.491 656.978 213.191 656.978 214H653.91C653.91 213.678 653.843 213.394 653.708 213.147C653.579 212.901 653.383 212.708 653.119 212.567C652.855 212.427 652.524 212.356 652.126 212.356C651.739 212.356 651.414 212.415 651.15 212.532C650.887 212.649 650.688 212.808 650.553 213.007C650.418 213.2 650.351 213.414 650.351 213.648C650.351 213.842 650.403 214.018 650.509 214.176C650.62 214.328 650.775 214.472 650.975 214.606C651.18 214.741 651.426 214.87 651.713 214.993C652.006 215.116 652.334 215.236 652.697 215.354C653.377 215.57 653.98 215.813 654.508 216.083C655.041 216.347 655.489 216.648 655.853 216.988C656.222 217.322 656.5 217.703 656.688 218.131C656.881 218.559 656.978 219.042 656.978 219.581C656.978 220.155 656.866 220.665 656.644 221.11C656.421 221.556 656.102 221.934 655.686 222.244C655.27 222.549 654.771 222.78 654.191 222.938C653.611 223.097 652.964 223.176 652.249 223.176C651.593 223.176 650.945 223.094 650.307 222.93C649.674 222.76 649.1 222.502 648.584 222.156C648.068 221.805 647.655 221.356 647.345 220.812C647.04 220.261 646.888 219.607 646.888 218.852H649.981C649.981 219.227 650.031 219.543 650.131 219.801C650.23 220.059 650.377 220.267 650.57 220.425C650.764 220.577 651.001 220.688 651.282 220.759C651.563 220.823 651.886 220.855 652.249 220.855C652.642 220.855 652.958 220.8 653.198 220.688C653.438 220.571 653.614 220.419 653.726 220.231C653.837 220.038 653.893 219.827 653.893 219.599ZM663.895 226.656V215.485L664.308 213.49H666.874V226.656H663.895ZM658.059 218.333V218.148C658.059 217.428 658.138 216.771 658.296 216.18C658.454 215.582 658.688 215.072 658.999 214.65C659.31 214.223 659.693 213.895 660.15 213.666C660.613 213.432 661.146 213.314 661.75 213.314C662.318 213.314 662.805 213.438 663.209 213.684C663.619 213.93 663.962 214.275 664.237 214.721C664.513 215.16 664.735 215.676 664.905 216.268C665.081 216.859 665.219 217.498 665.318 218.184V218.403C665.219 219.048 665.081 219.657 664.905 220.231C664.735 220.806 664.513 221.315 664.237 221.761C663.962 222.2 663.619 222.546 663.209 222.798C662.799 223.05 662.307 223.176 661.732 223.176C661.135 223.176 660.607 223.056 660.15 222.815C659.693 222.569 659.31 222.229 658.999 221.796C658.688 221.356 658.454 220.844 658.296 220.258C658.138 219.666 658.059 219.024 658.059 218.333ZM661.021 218.148V218.333C661.021 218.69 661.044 219.024 661.091 219.335C661.138 219.64 661.217 219.909 661.328 220.144C661.445 220.378 661.598 220.562 661.785 220.697C661.973 220.826 662.207 220.891 662.488 220.891C662.916 220.891 663.253 220.797 663.499 220.609C663.745 220.422 663.918 220.161 664.018 219.827C664.117 219.487 664.158 219.092 664.141 218.641V217.946C664.146 217.56 664.123 217.22 664.07 216.927C664.018 216.634 663.927 216.391 663.798 216.197C663.675 215.998 663.508 215.849 663.297 215.749C663.086 215.649 662.822 215.6 662.506 215.6C662.23 215.6 661.996 215.664 661.803 215.793C661.615 215.916 661.463 216.092 661.346 216.32C661.234 216.549 661.152 216.818 661.1 217.129C661.047 217.439 661.021 217.779 661.021 218.148ZM671.682 209.5V223H668.711V209.5H671.682Z" fill="white"/>
<rect x="715" y="196" width="91" height="41" rx="3" fill="#424242"/>
<rect x="715" y="196" width="91" height="41" rx="3" stroke="#424242" stroke-width="4"/>
<path d="M743.335 218.983V210.203H746.411V218.983C746.411 219.839 746.215 220.58 745.822 221.207C745.436 221.834 744.908 222.32 744.24 222.666C743.578 223.006 742.834 223.176 742.008 223.176C741.152 223.176 740.391 223.032 739.723 222.745C739.061 222.458 738.539 222.016 738.158 221.418C737.783 220.82 737.596 220.059 737.596 219.133H740.689C740.689 219.566 740.739 219.906 740.839 220.152C740.938 220.393 741.085 220.562 741.278 220.662C741.478 220.756 741.721 220.803 742.008 220.803C742.289 220.803 742.526 220.732 742.72 220.592C742.919 220.445 743.071 220.237 743.177 219.968C743.282 219.692 743.335 219.364 743.335 218.983ZM754.963 219.599C754.963 219.399 754.934 219.221 754.875 219.062C754.816 218.898 754.708 218.746 754.55 218.605C754.392 218.465 754.163 218.324 753.864 218.184C753.571 218.037 753.185 217.885 752.704 217.727C752.142 217.539 751.6 217.328 751.078 217.094C750.557 216.854 750.091 216.575 749.681 216.259C749.271 215.937 748.945 215.562 748.705 215.134C748.465 214.7 748.345 214.196 748.345 213.622C748.345 213.071 748.468 212.576 748.714 212.137C748.96 211.691 749.303 211.313 749.742 211.003C750.188 210.687 750.709 210.446 751.307 210.282C751.904 210.112 752.558 210.027 753.267 210.027C754.204 210.027 755.03 210.191 755.745 210.52C756.466 210.842 757.028 211.302 757.433 211.899C757.843 212.491 758.048 213.191 758.048 214H754.98C754.98 213.678 754.913 213.394 754.778 213.147C754.649 212.901 754.453 212.708 754.189 212.567C753.926 212.427 753.595 212.356 753.196 212.356C752.81 212.356 752.484 212.415 752.221 212.532C751.957 212.649 751.758 212.808 751.623 213.007C751.488 213.2 751.421 213.414 751.421 213.648C751.421 213.842 751.474 214.018 751.579 214.176C751.69 214.328 751.846 214.472 752.045 214.606C752.25 214.741 752.496 214.87 752.783 214.993C753.076 215.116 753.404 215.236 753.768 215.354C754.447 215.57 755.051 215.813 755.578 216.083C756.111 216.347 756.56 216.648 756.923 216.988C757.292 217.322 757.57 217.703 757.758 218.131C757.951 218.559 758.048 219.042 758.048 219.581C758.048 220.155 757.937 220.665 757.714 221.11C757.491 221.556 757.172 221.934 756.756 222.244C756.34 222.549 755.842 222.78 755.262 222.938C754.682 223.097 754.034 223.176 753.319 223.176C752.663 223.176 752.016 223.094 751.377 222.93C750.744 222.76 750.17 222.502 749.654 222.156C749.139 221.805 748.726 221.356 748.415 220.812C748.11 220.261 747.958 219.607 747.958 218.852H751.052C751.052 219.227 751.102 219.543 751.201 219.801C751.301 220.059 751.447 220.267 751.641 220.425C751.834 220.577 752.071 220.688 752.353 220.759C752.634 220.823 752.956 220.855 753.319 220.855C753.712 220.855 754.028 220.8 754.269 220.688C754.509 220.571 754.685 220.419 754.796 220.231C754.907 220.038 754.963 219.827 754.963 219.599ZM770.467 216.347V216.865C770.467 217.844 770.329 218.723 770.054 219.502C769.784 220.275 769.4 220.938 768.902 221.488C768.404 222.033 767.815 222.452 767.136 222.745C766.456 223.032 765.706 223.176 764.886 223.176C764.06 223.176 763.304 223.032 762.618 222.745C761.938 222.452 761.347 222.033 760.843 221.488C760.345 220.938 759.958 220.275 759.683 219.502C759.413 218.723 759.278 217.844 759.278 216.865V216.347C759.278 215.368 759.413 214.489 759.683 213.71C759.958 212.931 760.342 212.269 760.834 211.724C761.332 211.173 761.921 210.754 762.601 210.467C763.286 210.174 764.042 210.027 764.868 210.027C765.688 210.027 766.438 210.174 767.118 210.467C767.804 210.754 768.396 211.173 768.894 211.724C769.392 212.269 769.778 212.931 770.054 213.71C770.329 214.489 770.467 215.368 770.467 216.347ZM767.338 216.865V216.329C767.338 215.696 767.282 215.14 767.171 214.659C767.065 214.173 766.907 213.766 766.696 213.438C766.485 213.109 766.225 212.863 765.914 212.699C765.609 212.529 765.261 212.444 764.868 212.444C764.458 212.444 764.101 212.529 763.796 212.699C763.491 212.863 763.236 213.109 763.031 213.438C762.826 213.766 762.671 214.173 762.565 214.659C762.466 215.14 762.416 215.696 762.416 216.329V216.865C762.416 217.492 762.466 218.049 762.565 218.535C762.671 219.016 762.826 219.423 763.031 219.757C763.242 220.091 763.5 220.343 763.805 220.513C764.115 220.683 764.476 220.768 764.886 220.768C765.278 220.768 765.627 220.683 765.932 220.513C766.236 220.343 766.491 220.091 766.696 219.757C766.907 219.423 767.065 219.016 767.171 218.535C767.282 218.049 767.338 217.492 767.338 216.865ZM782.754 210.203V223H779.678L775.151 215.037V223H772.066V210.203H775.151L779.678 218.166V210.203H782.754Z" fill="white"/>
</svg>
